<?xml version="1.0" encoding="UTF-8"?>
<svg xmlns="http://www.w3.org/2000/svg" width="512" height="512" viewBox="0 0 512 512">
  <defs>
    <linearGradient id="g" x1="0" x2="1" y1="0" y2="1">
      <stop offset="0" stop-color="#5B21B6"/>
      <stop offset="1" stop-color="#7C3AED"/>
    </linearGradient>
  </defs>
  <rect width="100%" height="100%" rx="72" fill="#060010" />
  <g transform="translate(64,64) scale(0.75)">
    <path d="M160 32c-44 0-80 36-80 80 0 4 .3 8 .9 12C46 140 16 180 16 228c0 60 48 108 108 108h212c56 0 100-44 100-100 0-56-44-100-100-100-6 0-12 .5-18 1.4-18-34-52-54-98-54z" fill="url(#g)" />
    <text x="120" y="260" font-family="Inter, Arial, sans-serif" font-size="80" fill="#ffffff" font-weight="700">CM</text>
  </g>
</svg>
